<?xml version="1.0" encoding="UTF-8" standalone="no"?>
<!-- Created with Inkscape (http://www.inkscape.org/) -->

<svg
   width="146.3674"
   height="254.00003"
   viewBox="0 0 38.726374 67.204177"
   version="1.1"
   id="svg5"
   inkscape:version="1.1.2 (b8e25be833, 2022-02-05)"
   sodipodi:docname="logo.svg"
   xmlns:inkscape="http://www.inkscape.org/namespaces/inkscape"
   xmlns:sodipodi="http://sodipodi.sourceforge.net/DTD/sodipodi-0.dtd"
   xmlns="http://www.w3.org/2000/svg"
   xmlns:svg="http://www.w3.org/2000/svg">
  <sodipodi:namedview
     id="namedview7"
     pagecolor="#ffffff"
     bordercolor="#666666"
     borderopacity="1.0"
     inkscape:pageshadow="2"
     inkscape:pageopacity="0.0"
     inkscape:pagecheckerboard="0"
     inkscape:document-units="px"
     showgrid="false"
     units="px"
     inkscape:zoom="4"
     inkscape:cx="116.875"
     inkscape:cy="106"
     inkscape:window-width="1920"
     inkscape:window-height="1137"
     inkscape:window-x="-8"
     inkscape:window-y="-8"
     inkscape:window-maximized="1"
     inkscape:current-layer="layer1"
     fit-margin-top="2"
     fit-margin-left="2"
     fit-margin-bottom="2"
     fit-margin-right="2" />
  <defs
     id="defs2" />
  <g
     inkscape:label="Layer 1"
     inkscape:groupmode="layer"
     id="layer1"
     transform="translate(-65.879057,-41.626207)">
    <path
       style="fill:#ffffff;fill-opacity:1;stroke:none;stroke-width:0.264583px;stroke-linecap:butt;stroke-linejoin:miter;stroke-opacity:1"
       d="m 85.524369,43.412144 c -6.227212,-0.177116 -13.049327,4.73355 -15.941145,10.517188 -2.891819,5.783638 -1.805254,13.001755 1.521354,17.991666 1.358678,2.038017 3.550486,3.132222 4.630208,5.291667 1.582352,3.164705 0.740712,7.050783 1.852083,10.384896 1.10901,3.327026 7.606387,3.288667 9.988021,1.5875 2.978292,-2.127351 1.660165,-8.01451 3.439583,-10.980209 2.058297,-3.430494 5.02729,-5.887254 7.408334,-9.061979 3.957013,-5.276025 2.540773,-12.397847 -0.992188,-17.859374 -2.30229,-3.559062 -5.679038,-7.694239 -11.90625,-7.871355 z"
       id="path855"
       sodipodi:nodetypes="zzsssssssz" />
    <path
       style="fill:#000000;stroke-width:0.107219"
       d="m 83.966178,108.1636 c -1.574435,-0.43808 -2.622695,-1.50301 -3.015245,-3.06315 l -0.175355,-0.69693 -0.664547,-0.0748 c -0.864938,-0.0974 -1.329679,-0.25631 -1.726841,-0.59049 -0.940288,-0.7912 -0.830273,-2.10433 0.199961,-2.3867 0.389548,-0.10676 3.740566,-0.58756 9.349149,-1.34139 1.562723,-0.210051 3.134755,-0.429247 3.493414,-0.487105 0.358659,-0.05787 0.876563,-0.10521 1.150913,-0.10521 1.044421,0 1.492401,0.943485 1.095773,2.307815 -0.436143,1.50029 -1.559998,2.38528 -3.275561,2.57937 -0.65261,0.0738 -0.856247,0.22212 -0.856247,0.62355 0,0.0901 -0.104409,0.44291 -0.232015,0.78397 -0.291125,0.77809 -1.192537,1.75166 -1.955388,2.1119 -0.995141,0.46995 -2.409291,0.61152 -3.388011,0.33918 z m -6.851711,-9.202983 c -1.002187,-0.515285 -0.921837,-2.30369 0.125382,-2.790551 0.359677,-0.167225 1.751689,-0.389994 7.476867,-1.196562 9.572188,-1.348554 8.736064,-1.273854 9.237988,-0.825382 0.29848,0.266696 0.348195,0.389118 0.389417,0.958979 0.03908,0.540334 0.0057,0.719739 -0.190445,1.037851 -0.386584,0.625513 -0.846495,0.782865 -3.303849,1.130362 -5.955251,0.84216 -11.439644,1.586756 -12.941549,1.757027 -0.332232,0.03766 -0.634098,0.01039 -0.793811,-0.07173 z m 0.204107,-5.62211 c -0.237872,-0.122351 -0.466653,-0.369686 -0.62485,-0.675519 -0.217083,-0.419671 -0.24322,-0.594157 -0.200755,-1.340233 0.02687,-0.47177 0.120469,-1.028718 0.208041,-1.237664 0.155879,-0.371949 0.150562,-0.394222 -0.253793,-1.062957 -0.845312,-1.397991 -0.868812,-1.520491 -0.957304,-4.990312 -0.06664,-2.612966 -0.114091,-3.240061 -0.297214,-3.928051 -0.424151,-1.593541 -1.109313,-2.679743 -3.210898,-5.09034 -3.545221,-4.066494 -5.08561,-7.426732 -5.499449,-11.996619 -0.344446,-3.803592 0.521842,-7.853926 2.382708,-11.140385 1.268729,-2.240693 3.627706,-4.869159 5.638624,-6.282776 2.304383,-1.619916 5.087709,-2.783088 7.852759,-3.281723 1.173564,-0.211634 4.114934,-0.208047 5.545115,0.0068 3.157193,0.474203 6.738089,2.09563 9.240346,4.184018 2.032088,1.695992 3.976216,4.226385 5.109196,6.649914 2.1081,4.509395 2.39496,9.407284 0.83493,14.255734 -0.88077,2.737385 -2.02976,4.65466 -4.37202,7.295375 -1.95595,2.205184 -2.593628,3.09224 -3.11981,4.339869 -0.514538,1.220024 -0.573129,1.664215 -0.646327,4.900102 -0.07351,3.250099 -0.151977,3.792903 -0.708933,4.904422 -0.703601,1.404212 -1.614318,2.434725 -2.463091,2.78707 -0.362104,0.150325 -2.25785,0.437231 -6.844696,1.035893 -7.116137,0.928777 -7.106192,0.927901 -7.612579,0.667419 z m 7.666114,-16.436776 c 1.019177,0 5.910747,-5.530575 6.084485,-5.841036 0.107117,-0.191398 -0.06179,-0.547551 -0.323822,-0.682787 -0.101843,-0.05257 -0.496718,-0.129571 -0.877493,-0.171124 -0.866798,-0.09459 -1.252829,-0.258733 -1.686738,-0.717212 -0.454248,-0.479974 -0.569478,-0.822209 -0.569478,-1.691346 0,-1.76482 1.519524,-3.276645 3.27671,-3.260112 0.834159,0.0079 1.528421,0.310114 1.934196,0.842103 0.282607,0.370523 0.313828,0.500216 0.363635,1.510278 0.06022,1.221925 0.19908,1.514823 0.662856,1.398423 0.338208,-0.08489 4.913426,-4.698903 4.913426,-4.955099 0,-0.115925 -0.983866,-1.186295 -2.358829,-2.566228 -2.469469,-2.478388 -2.617175,-2.688219 -2.171195,-3.084346 0.103202,-0.09166 0.519662,-0.217556 0.925481,-0.279761 0.935168,-0.143346 1.427432,-0.464526 1.821391,-1.188348 0.711254,-1.306794 0.191627,-2.875799 -1.161006,-3.505665 -0.893021,-0.415845 -1.900562,-0.297779 -2.584673,0.302876 -0.52498,0.460938 -0.616187,0.67118 -0.684061,1.576796 -0.05239,0.699477 -0.09319,0.81832 -0.344963,1.005748 -0.20864,0.155305 -0.367443,0.192213 -0.589707,0.137057 -0.201742,-0.05006 -1.279193,-1.043653 -3.199117,-2.950128 -1.592208,-1.581056 -3.121572,-3.00661 -3.431098,-3.00661 0,-3.093171 7.83e-4,-3.740489 0,-4.89615 -0.271521,-0.104193 -2.274658,0.151553 -3.377337,0.441833 -2.870704,0.755711 -5.152321,2.093207 -7.40679,4.341905 -2.485975,2.479609 -3.869197,5.024268 -4.620323,8.499821 -0.321067,1.485626 -0.345478,4.569778 -0.04775,6.033607 0.335793,1.65101 0.69881,2.73671 1.398159,4.181561 0.776867,1.605017 1.795257,3.074373 3.462819,4.996255 1.608672,1.854008 2.11065,2.52557 2.66073,3.559618 1.052064,1.977675 1.136281,2.392806 1.222484,6.025971 0.06861,2.891881 0.09041,3.146448 0.311588,3.639559 0.319206,0.711659 0.681158,1.168096 1.16195,1.465238 0.700414,0.432875 1.242981,0.513541 3.304593,0.491381 l 1.929877,-0.02071 z M 84.335764,76.58819 c -0.232758,-0.172445 -1.544978,-1.471176 -2.916047,-2.886059 -2.637541,-2.721831 -2.786001,-2.937609 -2.251609,-3.272653 0.132684,-0.08319 0.554862,-0.182876 0.938169,-0.221531 1.01386,-0.102242 1.3459,-0.238978 1.762652,-0.725856 1.681599,-1.96457 -0.642859,-5.402573 -3.313707,-4.901159 -1.254787,0.23557 -1.766514,0.948592 -1.770392,2.4668 -0.0024,0.983611 -0.140999,1.276446 -0.603656,1.276446 -0.278925,0 -4.974109,-4.707294 -4.974109,-4.986935 0,-0.123708 0.923073,-1.128668 2.332021,-2.538894 1.654882,-1.656381 2.342142,-2.415337 2.366865,-2.61378 0.05457,-0.437965 -0.228879,-0.653487 -0.969655,-0.737296 -1.458329,-0.164991 -2.23567,-1.006973 -2.242475,-2.42894 -0.009,-1.887512 1.958662,-3.122209 3.640278,-2.284223 0.771615,0.384513 1.091694,0.936745 1.091694,1.88351 0,0.588494 0.03821,0.731524 0.248151,0.92875 0.289868,0.272317 0.510213,0.291552 0.909782,0.07941 0.159243,-0.08454 1.495749,-1.366337 2.970016,-2.848429 2.456493,-2.469531 3.1136,-3.002144 3.430946,-3.002144 v 27.1276 c -0.07684,0 -0.416167,-0.142171 -0.648924,-0.31462 z"
       id="path1096"
       sodipodi:nodetypes="sscsssssssssssscssscssccsscsssssssssssssssssssscssssssssssssssssssssccsssssssssssccsssssscsssssssssssccs" />
  </g>
</svg>
